<?xml version="1.0" standalone="no"?>
<!DOCTYPE svg PUBLIC "-//W3C//DTD SVG 1.1//EN" "http://www.w3.org/Graphics/SVG/1.1/DTD/svg11.dtd">
<svg height="511.9991455078125" viewBox="-19 0 511 511.99915" width="511" xmlns="http://www.w3.org/2000/svg"><path d="m339.90625 209.296875-26.480469-160.355469c-.703125-4.277344-6.449219-5.1875-8.441406-1.339844l-36.535156 70.496094c-.867188-.210937-.742188-.183594-1.609375-.394531l-.066406-49.5625c-.003907-4.332031-5.519532-6.160156-8.113282-2.695313l-23.601562 31.566407c-.230469.304687-.722656.128906-.699219-.257813l8.90625-91.976562c.253906-4.324219-5.152344-6.476563-7.941406-3.164063l-108.582031 130.089844c-25.222657 29.304687-32.523438 71.988281-14.515626 109.582031 10.535157 21.996094 28.207032 38.492188 48.992188 47.976563 32.28125 41.0625 91.453125 50.800781 135.183594 21.652343 34.683594-23.117187 50.214844-63.539062 43.503906-101.617187zm0 0" fill="#ff9a00"/><path d="m339.90625 209.296875-26.480469-160.355469c-.703125-4.277344-6.449219-5.1875-8.441406-1.339844l-8.074219 15.574219 22.550782 136.570313c6.710937 38.078125-8.816407 78.5-43.503907 101.617187-26.867187 17.910157-59.566406 21.136719-88.277343 11.4375 32.601562 19.953125 75.199218 20.460938 108.722656-1.886719 34.683594-23.117187 50.214844-63.539062 43.503906-101.617187zm0 0" fill="#fc8900"/><path d="m278.410156 471.371094v-174.25h-82.570312v174.25c0 13.898437-5.769532 26.445312-15.042969 35.382812-1.980469 1.910156-.683594 5.246094 2.066406 5.246094h108.523438c2.75 0 4.046875-3.335938 2.066406-5.246094-9.273437-8.9375-15.042969-21.484375-15.042969-35.382812zm0 0" fill="#ca6d36"/><path d="m278.410156 471.371094v-174.25h-26.078125c2.242188 0 4.058594 68.464844 4.058594 70.703125v103.546875c0 16.886718 8.519531 31.78125 21.492187 40.628906h13.503907c2.75 0 4.046875-3.335938 2.066406-5.246094-9.273437-8.9375-15.042969-21.484375-15.042969-35.382812zm0 0" fill="#ad5e2e"/><path d="m407.933594 208.769531h-3.472656c-1.6875 0-3.359376.066407-5.015626.195313-5.375.417968-10.179687-3.3125-11.152343-8.613282-5.582031-30.496093-32.273438-53.613281-64.382813-53.613281h-3.472656c-7.519531 0-14.742188 1.269531-21.464844 3.605469-4.074218 1.414062-8.558594.207031-11.429687-3.011719-11.988281-13.4375-29.425781-21.902343-48.851563-21.902343h-3.472656c-19.425781 0-36.859375 8.464843-48.847656 21.902343-2.871094 3.21875-7.355469 4.425781-11.429688 3.011719-6.726562-2.335938-13.949218-3.605469-21.46875-3.605469h-3.472656c-32.109375 0-58.800781 23.117188-64.382812 53.613281-.96875 5.300782-5.777344 9.027344-11.152344 8.613282-1.652344-.128906-3.328125-.195313-5.015625-.195313h-3.472657c-36.160156 0-65.476562 29.316407-65.476562 65.480469v100.070312c0 36.164063 29.316406 65.480469 65.476562 65.480469h3.472657c12.773437 0 24.6875-3.667969 34.757812-10 3.367188-2.113281 7.671875-2.113281 11.035157 0 10.074218 6.332031 21.984374 10 34.757812 10h3.472656c12.992188 0 25.089844-3.792969 35.269532-10.320312 3.40625-2.183594 7.800781-2.183594 11.207031 0 10.175781 6.527343 22.277343 10.320312 35.265625 10.320312h3.476562c12.988282 0 25.089844-3.792969 35.269532-10.320312 3.40625-2.183594 7.796874-2.183594 11.203124 0 10.179688 6.527343 22.28125 10.320312 35.269532 10.320312h3.472656c12.773438 0 24.6875-3.667969 34.757812-10 3.367188-2.113281 7.671876-2.113281 11.035157 0 10.074219 6.332031 21.984375 10 34.757812 10h3.472657c36.164062 0 65.476562-29.316406 65.476562-65.480469v-100.070312c.003906-36.164062-29.308594-65.480469-65.472656-65.480469zm0 0" fill="#00b965"/><path d="m435.765625 214.976562c.1875 2.007813.292969 4.035157.292969 6.09375v100.074219c0 36.160157-29.3125 65.476563-65.476563 65.476563h-3.472656c-12.773437 0-24.6875-3.667969-34.757813-9.996094-3.363281-2.117188-7.671874-2.117188-11.035156 0-10.070312 6.328125-21.984375 9.996094-34.757812 9.996094h-3.472656c-12.992188 0-25.089844-3.792969-35.269532-10.320313-3.40625-2.183593-7.800781-2.183593-11.203125 0-10.179687 6.527344-22.28125 10.320313-35.269531 10.320313h-3.476562c-12.988282 0-25.089844-3.792969-35.269532-10.320313-3.40625-2.183593-7.796875-2.183593-11.203125 0-10.179687 6.527344-22.277343 10.320313-35.269531 10.320313h-3.472656c-12.773438 0-24.6875-3.667969-34.757813-9.996094-3.363281-2.117188-7.671875-2.117188-11.035156 0-10.070313 6.328125-21.984375 9.996094-34.757813 9.996094h-3.472656c-9.957031 0-19.386718-2.234375-27.832031-6.207032 3.074219 33.304688 31.078125 59.386719 65.183594 59.386719h3.472656c12.777344 0 24.6875-3.667969 34.757813-10 3.367187-2.113281 7.671874-2.113281 11.035156 0 10.074218 6.332031 21.984375 10 34.757812 10h3.472656c12.992188 0 25.089844-3.792969 35.269532-10.320312 3.40625-2.183594 7.800781-2.183594 11.207031 0 10.175781 6.527343 22.277344 10.320312 35.265625 10.320312h3.476562c12.988282 0 25.089844-3.792969 35.269532-10.320312 3.40625-2.183594 7.796875-2.183594 11.203125 0 10.179687 6.527343 22.28125 10.320312 35.269531 10.320312h3.472656c12.777344 0 24.6875-3.667969 34.757813-10 3.367187-2.113281 7.671875-2.113281 11.035156 0 10.074219 6.332031 21.984375 10 34.757813 10h3.472656c36.164062 0 65.476562-29.316406 65.476562-65.480469v-100.070312c0-26.207031-15.402344-48.808594-37.644531-59.273438zm0 0" fill="#00a855"/><path d="m282.785156 472.652344h-16.328125c-4.265625 0-7.722656-3.457032-7.722656-7.722656 0-4.269532 3.457031-7.726563 7.722656-7.726563h16.328125c11.714844 0 21.246094-9.53125 21.246094-21.246094v-36.035156c0-4.269531 3.460938-7.726563 7.726562-7.726563 4.265626 0 7.726563 3.457032 7.726563 7.726563v36.035156c-.003906 20.234375-16.464844 36.695313-36.699219 36.695313zm0 0" fill="#ae5f2e"/><path d="m265.992188 288.84375-25.777344-156.097656c-.6875-4.160156-6.277344-5.050782-8.21875-1.304688l-35.5625 68.625c-.847656-.207031-.726563-.175781-1.570313-.382812l-.0625-48.246094c-.003906-4.214844-5.375-5.996094-7.898437-2.621094l-22.976563 30.722656c-.222656.300782-.703125.128907-.679687-.246093l8.671875-89.535157c.246093-4.210937-5.015625-6.304687-7.730469-3.078124l-105.699219 126.632812c-24.554687 28.527344-31.660156 70.078125-14.132812 106.671875 10.257812 21.414063 27.460937 37.472656 47.695312 46.703125 31.421875 39.976562 89.023438 49.453125 131.589844 21.078125 33.765625-22.507813 48.882813-61.855469 42.351563-98.921875zm0 0" fill="#ff9a00"/><path d="m265.992188 288.84375-25.777344-156.097656c-.6875-4.160156-6.277344-5.050782-8.21875-1.304688l-7.859375 15.160156 21.953125 132.945313c6.535156 37.066406-8.582032 76.414063-42.347656 98.921875-26.15625 17.433594-57.988282 20.570312-85.933594 11.128906 31.734375 19.425782 73.203125 19.917969 105.835937-1.832031 33.761719-22.507813 48.878907-61.855469 42.347657-98.921875zm0 0" fill="#fc8900"/><path d="m167.996094 219.320312c-.003906-4.214843-5.371094-5.996093-7.898438-2.621093l-12.359375 16.550781c-.214843.292969-.675781.140625-.683593-.222656l-.402344-35.984375c-.007813-4.214844-5.375-5.996094-7.898438-2.621094l-69.519531 92c-12.6875 16.789063-15.53125 37.898437-9.574219 56.492187 9.128906 10.179688 20.210938 18.214844 32.390625 23.773438 18.859375 23.992188 47.152344 36.992188 75.960938 37.421875zm0 0" fill="#ffd500"/><path d="m117.847656 389.613281c15.175782 9.277344 32.570313 14.234375 50.164063 14.496094v-11.03125c-16.792969 3.203125-34.117188 1.945313-50.164063-3.464844zm0 0" fill="#fbc700"/></svg>